# xmcd
#
# Track frame offsets: 
#        150
#        14394
#        25389
#        33016
#        42254
#        49429
#        62331
#        77228
#        100425
#        106911
#        110963
#
# Disc length: 1600 seconds
#
# Revision: 0
# Processed by: cddbd v1.5.1PL0 Copyright (c) Steve Scherf et al.
# Submitted via: ExactAudioCopy v0.95a4
#
DISCID=8e063e0b
DTITLE=Jim Reeves - Memories Are Made Of This
DYEAR=2004
DGENRE=Easy Listening
TTITLE0=The Blizzard
TTITLE1=Your Old Love Letters
TTITLE2=Am I Losing You
TTITLE3=Bimbo
TTITLE4=Stand At Your Window
TTITLE5=Danny Boy
TTITLE6=Medley: Mexican Joe/Yonder Comes A Sucker
TTITLE7=Medley
TTITLE8=Walking The Floor Over You
TTITLE9=One By One
TTITLE10=Wildwood Flower
EXTD=
EXTT0=
EXTT1=
EXTT2=
EXTT3=
EXTT4=
EXTT5=
EXTT6=
EXTT7=
EXTT8=
EXTT9=
EXTT10=
PLAYORDER=
